<?xml version="1.0" encoding="utf-8"?><!-- Uploaded to: SVG Repo, www.svgrepo.com, Generator: SVG Repo Mixer Tools -->
<svg version="1.1" id="Uploaded to svgrepo.com" xmlns="http://www.w3.org/2000/svg" xmlns:xlink="http://www.w3.org/1999/xlink" 
	 width="800px" height="800px" viewBox="0 0 32 32" xml:space="preserve">
<style type="text/css">
	.feather_een{fill:#0B1719;}
</style>
<path class="feather_een" d="M24.391,16.061c0,0.552-0.448,1-1,1c-0.552,0-1-0.448-1-1c0-0.552,0.448-1,1-1
	C23.943,15.061,24.391,15.509,24.391,16.061z M23.391,8.939c0.552,0,1,0.448,1,1c0,0.552-0.448,1-1,1c-0.552,0-1-0.448-1-1
	C22.391,9.386,22.839,8.939,23.391,8.939z M16,1C9.373,1,4,6.373,4,13c0,4.006,1.983,7.526,5,9.704v2.182
	c0,1.167,0.958,2.003,2.003,2.003c0.33,0,0.669-0.083,0.989-0.266l0.928-0.53l-1.142,2.919c-0.267,0.682,0.258,1.366,0.925,1.366
	c0.105,0,0.213-0.017,0.322-0.053L16,29.333l2.975,0.992c0.109,0.036,0.217,0.053,0.322,0.053c0.667,0,1.192-0.684,0.925-1.366
	l-1.142-2.919l0.928,0.53c0.32,0.183,0.659,0.266,0.989,0.266c1.045,0,2.003-0.836,2.003-2.003v-2.182c3.017-2.179,5-5.699,5-9.704
	C28,6.373,22.627,1,16,1z M11.496,25.755c-0.156,0.089-0.322,0.135-0.493,0.135c-0.482,0-1.003-0.383-1.003-1.003v-5.107
	c0-0.619,0.521-1.003,1.003-1.003c0.171,0,0.337,0.045,0.493,0.135l2.348,1.342C13.324,20.792,13,21.523,13,22.333
	s0.324,1.54,0.845,2.08L11.496,25.755z M16,28.279l-3.291,1.097l1.594-4.074l0.442-0.253c0.383,0.177,0.805,0.283,1.255,0.283
	V28.279z M14,22.333c0-1.103,0.897-2,2-2c1.103,0,2,0.897,2,2c0,1.103-0.897,2-2,2C14.897,24.333,14,23.435,14,22.333z
	 M19.291,29.376L17,28.613v-3.464c0.086-0.031,0.172-0.061,0.255-0.099l0.442,0.253L19.291,29.376z M22,24.886
	c0,0.62-0.521,1.003-1.003,1.003c-0.171,0-0.337-0.045-0.493-0.135l-2.348-1.342c0.521-0.54,0.845-1.271,0.845-2.08
	s-0.324-1.54-0.845-2.08l2.348-1.342c0.156-0.089,0.322-0.135,0.493-0.135c0.482,0,1.003,0.383,1.003,1.003V24.886z M23,21.444
	v-1.665c0-1.167-0.958-2.003-2.003-2.003c-0.33,0-0.669,0.084-0.989,0.266l-2.753,1.573c-0.383-0.177-0.805-0.283-1.255-0.283
	s-0.872,0.106-1.255,0.283l-2.753-1.573c-0.32-0.183-0.659-0.266-0.989-0.266C9.958,17.776,9,18.612,9,19.779v1.665
	C6.567,19.426,5,16.401,5,13C5,6.935,9.935,2,16,2s11,4.935,11,11C27,16.401,25.433,19.426,23,21.444z M18.061,5.609
	c0-0.552,0.448-1,1-1s1,0.448,1,1s-0.448,1-1,1S18.061,6.161,18.061,5.609z M9.609,9.939c0,0.552-0.448,1-1,1c-0.552,0-1-0.448-1-1
	c0-0.552,0.448-1,1-1C9.161,8.939,9.609,9.386,9.609,9.939z M16,7.95c-2.785,0-5.05,2.266-5.05,5.05s2.266,5.05,5.05,5.05
	s5.05-2.266,5.05-5.05S18.785,7.95,16,7.95z M16,17.05c-2.237,0-4.05-1.813-4.05-4.05S13.763,8.95,16,8.95
	c2.237,0,4.05,1.813,4.05,4.05S18.237,17.05,16,17.05z M9.609,16.061c0,0.552-0.448,1-1,1c-0.552,0-1-0.448-1-1c0-0.552,0.448-1,1-1
	C9.161,15.061,9.609,15.509,9.609,16.061z M11.939,5.609c0-0.552,0.448-1,1-1s1,0.448,1,1s-0.448,1-1,1S11.939,6.161,11.939,5.609z"
	/>
</svg>