<?xml version="1.0" ?>
<!-- Uploaded to: SVG Repo, www.svgrepo.com, Generator: SVG Repo Mixer Tools -->
<svg width="800px" height="800px" viewBox="0 0 64 64" xmlns="http://www.w3.org/2000/svg">
<defs>
<style>.cls-1,.cls-2{fill:none;stroke:#000000;stroke-linejoin:round;stroke-width:2px;}.cls-1{stroke-linecap:round;}</style>
</defs>
<g id="timelapse">
<path d="M53,30a1,1,0,1,1-1-1A1,1,0,0,1,53,30Z"/>
<path d="M26,43a1,1,0,1,1-1-1A1,1,0,0,1,26,43Z"/>
<path d="M32,42a1,1,0,1,1-1-1A1,1,0,0,1,32,42Z"/>
<path d="M29,45a1,1,0,1,1-1-1A1,1,0,0,1,29,45Z"/>
<path d="M34,47a1,1,0,1,1-1-1A1,1,0,0,1,34,47Z"/>
<path d="M30,39a1,1,0,1,1-1-1A1,1,0,0,1,30,39Z"/>
<path d="M34,39a1,1,0,1,1-1-1A1,1,0,0,1,34,39Z"/>
<line class="cls-1" x1="9.5858" x2="12.4142" y1="25.5858" y2="28.4142"/>
<line class="cls-1" x1="12.4142" x2="9.5858" y1="25.5858" y2="28.4142"/>
<circle class="cls-1" cx="49" cy="22" r="2"/>
<rect class="cls-1" height="4" rx="2" width="28" x="16" y="6"/>
<rect class="cls-1" height="4" rx="2" width="28" x="16" y="57"/>
<path class="cls-2" d="M18,10V22a12,12,0,0,0,8.5852,11.5A12,12,0,0,0,18,45V57"/>
<path class="cls-2" d="M42,57V45a12,12,0,0,0-8.5852-11.5A12,12,0,0,0,42,22V10"/>
<line class="cls-1" x1="34" x2="26" y1="19" y2="29"/>
<circle class="cls-1" cx="26.5" cy="20.5" r="1.5"/>
<circle class="cls-1" cx="33.5" cy="27.5" r="1.5"/>
<line class="cls-2" x1="42" x2="18" y1="15" y2="15"/>
<line class="cls-2" x1="18" x2="42" y1="51" y2="51"/>
</g>
</svg>